<svg xmlns="http://www.w3.org/2000/svg" width="24" height="24"><path d="M23.1 23C23.1 23.6 22.6 24 22.1 24L1 24C0.4 24 0 23.6 0 23L0 11C0 10.5 0.4 10 1 10L7.1 10C7.6 10 8 9.6 8.1 9.1L8.9 0.9C9 0.4 9.4 0 9.9 0L15 0C15.6 0 16 0.4 16 1L16 7.5C16 7.8 16.2 8 16.5 8L23 8C23.5 8 24 8.5 24 9.1L23.1 23ZM8 12.5C8 12.2 7.8 12 7.5 12L2.5 12C2.2 12 2 12.2 2 12.5L2 21.5C2 21.8 2.2 22 2.5 22L7.5 22C7.8 22 8 21.8 8 21.5L8 12.5ZM21.2 10L15 10C14.5 10 14 9.5 14 9L14 2.5C14 2.2 13.8 2 13.5 2L11.3 2C11 2 10.8 2.2 10.8 2.4L10 10C10 10 10 10 10 10.1L10 12 10 21.5C10 21.7 10.2 22 10.5 22L20.6 22C20.8 22 21 21.8 21.1 21.5L21.7 10.5C21.7 10.2 21.5 10 21.2 10ZM5 20C4.4 20 4 19.6 4 19 4 18.5 4.4 18 5 18 5.5 18 6 18.5 6 19 6 19.6 5.5 20 5 20Z" fill="rgb(153, 153, 153)"/></svg>