<svg xmlns="http://www.w3.org/2000/svg" width="25" height="25"><path fill-rule="evenodd" fill="#fff" d="M22.176 25H2.53C1.13 25 0 23.868 0 22.47V2.825C0 1.427 1.175 0 2.57 0h14.073v1.286H2.57c-.697 0-1.284.587-1.284 1.286l-.02 19.9c0 .697.565 1.263 1.263 1.263l19.9-.02c.697 0 1.284-.588 1.284-1.286V8.356H25V22.43c0 1.395-1.427 2.57-2.824 2.57zm2.18-19.214c-.364 0-.642-.295-.642-.643l-.02-3.072-9.782 9.332c-.256.244-.672.244-.93 0-.255-.245-.255-.642 0-.886l9.7-9.25-2.825.02c-.365 0-.643-.295-.643-.643 0-.348.278-.642.643-.643h4.486c.365 0 .657.28.657.627v4.516c0 .348-.278.642-.643.643z"/></svg>