<svg xmlns="http://www.w3.org/2000/svg" xmlns:xlink="http://www.w3.org/1999/xlink" preserveAspectRatio="xMidYMid" width="15" height="15" viewBox="0 0 15 15">
  <defs>
    <style>
      .cls-1 {
        fill: #f7b900;
        opacity: 0.5;
        fill-rule: evenodd;
      }
    </style>
  </defs>
  <path d="M-0.000,5.000 L1.000,5.000 L1.000,1.000 L-0.000,1.000 L-0.000,5.000 Z" class="cls-1"/>
  <path d="M15.000,5.000 L14.000,5.000 L14.000,1.000 L15.000,1.000 L15.000,5.000 Z" class="cls-1"/>
  <path d="M15.000,0.000 L15.000,1.000 L10.000,1.000 L10.000,0.000 L15.000,0.000 Z" class="cls-1"/>
  <path d="M-0.000,10.000 L1.000,10.000 L1.000,14.000 L-0.000,14.000 L-0.000,10.000 Z" class="cls-1"/>
  <path d="M-0.000,15.000 L-0.000,14.000 L5.000,14.000 L5.000,15.000 L-0.000,15.000 Z" class="cls-1"/>
  <path d="M-0.000,0.000 L-0.000,1.000 L5.000,1.000 L5.000,0.000 L-0.000,0.000 Z" class="cls-1"/>
  <path d="M15.000,10.000 L14.000,10.000 L14.000,14.000 L15.000,14.000 L15.000,10.000 Z" class="cls-1"/>
  <path d="M15.000,15.000 L15.000,14.000 L10.000,14.000 L10.000,15.000 L15.000,15.000 Z" class="cls-1"/>
</svg>
