<?xml version="1.0" standalone="no"?><!DOCTYPE svg PUBLIC "-//W3C//DTD SVG 1.1//EN" "http://www.w3.org/Graphics/SVG/1.1/DTD/svg11.dtd"><svg t="1509521110081" class="icon" style="fill:#888;" viewBox="0 0 1024 1024" version="1.1" xmlns="http://www.w3.org/2000/svg" p-id="18776" xmlns:xlink="http://www.w3.org/1999/xlink" width="200" height="200"><defs><style type="text/css"></style></defs><path d="M504.521985 69.462088c248.458028 0 450.592553 202.134525 450.592553 450.592553S752.979006 970.647194 504.521985 970.647194 53.928425 768.512669 53.928425 520.054641 256.063958 69.462088 504.521985 69.462088M504.521985 16.450726c-278.132385 0-503.603916 225.471531-503.603916 503.603916s225.471531 503.603916 503.603916 503.603916 503.603916-225.471531 503.603916-503.603916S782.65437 16.450726 504.521985 16.450726L504.521985 16.450726zM504.515942 686.031412c-14.637751 0-26.505681-11.854836-26.505681-26.505681L478.010261 210.460105c0-14.650845 11.86793-26.505681 26.505681-26.505681 14.637751 0 26.505681 11.854836 26.505681 26.505681l0 449.065626C531.020616 674.176576 519.152686 686.031412 504.515942 686.031412zM504.521985 820.592364m-53.011363 0a52.632 52.632 0 1 0 106.022725 0 52.632 52.632 0 1 0-106.022725 0Z" p-id="18777"></path></svg>