<?xml version="1.0" encoding="utf-8"?>
<!-- Generator: Adobe Illustrator 17.0.0, SVG Export Plug-In . SVG Version: 6.00 Build 0)  -->
<!DOCTYPE svg PUBLIC "-//W3C//DTD SVG 1.1//EN" "http://www.w3.org/Graphics/SVG/1.1/DTD/svg11.dtd">
<svg version="1.1" id="图层_1" xmlns="http://www.w3.org/2000/svg" xmlns:xlink="http://www.w3.org/1999/xlink" x="0px" y="0px"
	 width="200px" height="200px" viewBox="0 0 200 200" enable-background="new 0 0 200 200" xml:space="preserve">
<path fill="#DA4131" d="M174.675,178.349c-7.016-14.033-17.83-25.969-31.012-34.414c22.264-16.979,35.052-45.712,28.885-76.998
	c-5.801-29.554-29.493-53.67-59.016-59.867c-5.68-1.183-11.239-1.731-16.706-1.731c-15.34,0-29.615,4.526-41.643,12.24
	c-4.222,2.704-8.172,5.833-11.755,9.265C28.727,40.907,19.554,60.682,19.554,82.611c0,23.145,10.358,43.708,26.486,57.863
	c1.368,1.215,2.826,2.308,4.283,3.401c-0.153,0.092-0.335,0.182-0.487,0.274c-4.768,3.067-9.203,6.56-13.243,10.449
	c-7.108,6.803-13.091,14.822-17.586,23.691c-3.797,7.503,1.64,16.372,10.023,16.372h135.589
	C173.003,194.69,178.44,185.852,174.675,178.349L174.675,178.349z M135.675,106.667c-8.566,12.271-22.751,20.32-38.848,20.32
	c-15.886,0-29.889-7.866-38.485-19.894c-1.093-1.124-1.761-2.673-1.761-4.344c0,0-1.915-7.472,7.775-7.835
	c6.227-0.243,21.961-0.153,32.41-0.092c10.417-0.09,26.152-0.151,32.409,0.092c8.019,0.303,8.079,5.467,7.866,7.229
	c0.031,0.182,0.061,0.365,0.061,0.546c0,1.519-0.547,2.886-1.458,3.979H135.675z M135.675,106.667"/>
</svg>
