<?xml version="1.0" encoding="utf-8"?>
<!-- Generator: Adobe Illustrator 17.0.0, SVG Export Plug-In . SVG Version: 6.00 Build 0)  -->
<!DOCTYPE svg PUBLIC "-//W3C//DTD SVG 1.1//EN" "http://www.w3.org/Graphics/SVG/1.1/DTD/svg11.dtd">
<svg version="1.1" id="图层_1" xmlns="http://www.w3.org/2000/svg" xmlns:xlink="http://www.w3.org/1999/xlink" x="0px" y="0px"
	 width="200px" height="200px" viewBox="0 0 200 200" enable-background="new 0 0 200 200" xml:space="preserve">
<path fill="#5090FA" d="M158.191,9.375c0-5.176-4.34-9.375-9.698-9.375c-5.359,0-9.698,4.199-9.698,9.375v18.75
	c0,5.176,4.339,9.375,9.698,9.375c5.358,0,9.698-4.199,9.698-9.375V9.375z M109.699,9.375C109.699,4.199,105.353,0,100,0
	s-9.699,4.199-9.699,9.375v18.75c0,5.176,4.346,9.375,9.699,9.375s9.699-4.199,9.699-9.375V9.375z M61.206,9.375
	c0-5.176-4.34-9.375-9.699-9.375s-9.698,4.199-9.698,9.375v18.75c0,5.176,4.339,9.375,9.698,9.375s9.699-4.199,9.699-9.375V9.375z"
	/>
<path fill="#5090FA" d="M184.053,18.75H167.89v9.375c0,10.357-8.686,18.75-19.396,18.75c-10.712,0-19.397-8.393-19.397-18.75V18.75
	h-9.698v9.375c0,10.357-8.685,18.75-19.397,18.75c-10.711,0-19.397-8.393-19.397-18.75V18.75h-9.699v9.375
	c0,10.357-8.679,18.75-19.396,18.75c-10.711,0-19.397-8.393-19.397-18.75V18.75H15.948c-5.359,0-9.698,4.2-9.698,9.375v162.5
	c0,5.176,4.339,9.375,9.698,9.375h168.104c5.357,0,9.697-4.199,9.697-9.375v-162.5C193.75,22.949,189.41,18.75,184.053,18.75z
	 M59.625,170.036c0,4.393-3.625,7.95-8.085,7.95c-4.472,0-8.091-3.558-8.091-7.95v-21.188c0-4.387,3.619-7.943,8.091-7.943
	c4.46,0,8.085,3.557,8.085,7.943V170.036z M91.976,170.036c0,4.393-3.619,7.95-8.084,7.95c-4.473,0-8.091-3.558-8.091-7.95v-42.377
	c0-4.387,3.618-7.944,8.091-7.944c4.466,0,8.084,3.558,8.084,7.944V170.036L91.976,170.036z M124.327,170.036
	c0,4.393-3.612,7.95-8.085,7.95c-4.466,0-8.084-3.558-8.084-7.95v-63.565c0-4.394,3.618-7.95,8.084-7.95
	c4.473,0,8.085,3.557,8.085,7.95V170.036L124.327,170.036z M156.685,170.036c0,4.393-3.618,7.95-8.091,7.95
	c-4.461,0-8.084-3.558-8.084-7.95V85.275c0-4.386,3.623-7.943,8.084-7.943c4.473,0,8.091,3.557,8.091,7.943V170.036L156.685,170.036
	z"/>
</svg>
