<?xml version="1.0" encoding="utf-8"?>
<!-- Generator: Adobe Illustrator 17.0.0, SVG Export Plug-In . SVG Version: 6.00 Build 0)  -->
<!DOCTYPE svg PUBLIC "-//W3C//DTD SVG 1.1//EN" "http://www.w3.org/Graphics/SVG/1.1/DTD/svg11.dtd">
<svg version="1.1" id="图层_1" xmlns="http://www.w3.org/2000/svg" xmlns:xlink="http://www.w3.org/1999/xlink" x="0px" y="0px"
	 width="200px" height="200px" viewBox="0 0 200 200" enable-background="new 0 0 200 200" xml:space="preserve">
<path fill="#3D89F7" d="M196.375,179.495c0.037,2.738-0.474,5.455-1.502,7.992c-1.03,2.335-2.375,4.519-3.996,6.49
	c-1.827,1.937-4.037,3.471-6.49,4.506c-2.544,1.02-5.265,1.531-8.006,1.502H24.955c-5.591,0.035-10.973-2.121-14.992-6.008
	c-2.049-1.646-3.749-3.684-5.002-5.994c-1.03-2.542-1.541-5.264-1.502-8.006V66.06C3.307,60.6,5.487,55.333,9.453,51.578
	c3.816-3.887,9.05-6.051,14.496-5.994h151.439c5.463-0.145,10.731,2.033,14.496,5.994c3.884,3.811,6.049,9.041,5.994,14.483v30.977
	h-50.985c-5.46-0.152-10.727,2.028-14.483,5.994c-3.893,3.812-6.063,9.048-6.008,14.496c-0.002,3.644,0.858,7.237,2.508,10.486
	c1.242,2.888,3.332,5.329,5.994,7c3.612,2.164,7.783,3.209,11.988,3.004h51.481v41.463v0.014L196.375,179.495L196.375,179.495z
	 M165.385,34.601H61.94c7.992-4.492,15.985-8.488,22.985-12.484c6.504-3.5,12.498-6.504,18.989-9.99
	c5.994-3.5,11.024-5.994,14.496-8.006c4.246-2.512,9.068-3.888,14-3.996c3.581,0.089,7.124,0.764,10.486,1.998
	c3.23,1.595,6.117,3.804,8.502,6.504L165.385,34.601z M134.408,117.541c0.148-5.645,4.843-10.101,10.488-9.954
	c5.645,0.148,10.101,4.843,9.954,10.488c-0.148,5.645-4.843,10.101-10.488,9.954c-2.619-0.068-5.111-1.14-6.964-2.992
	C135.409,123.059,134.326,120.346,134.408,117.541z"/>
</svg>
