<?xml version="1.0" encoding="utf-8"?>
<!-- Generator: Adobe Illustrator 17.0.0, SVG Export Plug-In . SVG Version: 6.00 Build 0)  -->
<!DOCTYPE svg PUBLIC "-//W3C//DTD SVG 1.1//EN" "http://www.w3.org/Graphics/SVG/1.1/DTD/svg11.dtd">
<svg version="1.1" id="图层_1" xmlns="http://www.w3.org/2000/svg" xmlns:xlink="http://www.w3.org/1999/xlink" x="0px" y="0px"
	 width="200px" height="200px" viewBox="0 0 200 200" enable-background="new 0 0 200 200" xml:space="preserve">
<path fill="#3D89F7" d="M148.931,13.179H50.882c-7.421,0-13.437,6.016-13.437,13.437v148.835c6.934,0.043,12.542,5.676,12.542,12.62
	h6.141c0-3.453,2.799-6.252,6.252-6.252c3.453,0,6.252,2.799,6.252,6.252h6.259c0-3.453,2.799-6.252,6.252-6.252
	c3.453,0,6.252,2.799,6.252,6.252h6.259c0-3.453,2.799-6.252,6.252-6.252s6.252,2.799,6.252,6.252h6.259
	c0-3.453,2.799-6.252,6.252-6.252c3.453,0,6.252,2.799,6.252,6.252h6.183c0-3.453,2.799-6.252,6.252-6.252s6.252,2.799,6.252,6.252
	h6.267c0-6.899,5.593-12.492,12.492-12.492V26.616C162.368,19.195,156.352,13.179,148.931,13.179z M136.395,96.714
	c0,0.586-0.475,1.061-1.061,1.061h-26.215c-0.586,0-1.061,0.475-1.061,1.061v13.388c0,0.586,0.475,1.061,1.061,1.061h25.939
	c0.584,0,1.058,0.472,1.061,1.056l0.06,12.35c0.003,0.589-0.475,1.068-1.064,1.066l-25.994-0.065
	c-0.587-0.001-1.064,0.474-1.064,1.061v19.991c0,0.59-0.481,1.066-1.07,1.061l-14.46-0.123c-0.583-0.005-1.052-0.479-1.052-1.061
	V128.75c0-0.586-0.475-1.061-1.061-1.061H64.48c-0.586,0-1.061-0.475-1.061-1.061v-12.282c0-0.586,0.475-1.061,1.061-1.061h25.935
	c0.586,0,1.061-0.475,1.061-1.061V98.837c0-0.586-0.475-1.061-1.061-1.061H64.48c-0.586,0-1.061-0.475-1.061-1.061V84.429
	c0-0.585,0.473-1.059,1.058-1.061l19.986-0.061c0.863-0.003,1.362-0.98,0.858-1.681l-20.357-28.28
	c-0.505-0.702-0.004-1.681,0.861-1.681h16.291c0.344,0,0.667,0.167,0.866,0.447l16.793,23.686c0.424,0.598,1.313,0.596,1.734-0.004
	l16.768-23.899c0.199-0.283,0.523-0.452,0.869-0.452h14.505c0.862,0,1.364,0.973,0.865,1.676L114.264,81.63
	c-0.498,0.702,0.002,1.673,0.862,1.676l20.213,0.061c0.585,0.002,1.058,0.476,1.058,1.061L136.395,96.714L136.395,96.714z"/>
</svg>
