<?xml version="1.0" encoding="utf-8"?>
<!-- Generator: Adobe Illustrator 17.0.0, SVG Export Plug-In . SVG Version: 6.00 Build 0)  -->
<!DOCTYPE svg PUBLIC "-//W3C//DTD SVG 1.1//EN" "http://www.w3.org/Graphics/SVG/1.1/DTD/svg11.dtd">
<svg version="1.1" id="图层_1" xmlns="http://www.w3.org/2000/svg" xmlns:xlink="http://www.w3.org/1999/xlink" x="0px" y="0px"
	 width="200px" height="200px" viewBox="0 0 200 200" enable-background="new 0 0 200 200" xml:space="preserve">
<path fill="#FF5E39" d="M146.67,20c9.77,0,17.77,8,17.77,17.78V180l-62.22-26.67L40,180l0.09-142.22C40.09,28,48,20,57.78,20H146.67
	z M84.3,121.58V65.69h-1.19L60,73.97v9l13.22-4.1v42.7H84.3V121.58z M140,98.5V88.23c-0.08-7.49-1.72-13.23-4.94-17.23
	s-7.88-6-13.96-6c-6.08,0-10.74,2.02-13.97,6.06c-3.23,4.03-4.85,9.95-4.85,17.74v10.28c0.08,7.49,1.73,13.24,4.95,17.25
	c3.22,4,7.87,6.02,13.95,6.02c6.16,0,10.83-2.05,14.03-6.14c3.2-4.09,4.79-9.99,4.79-17.7V98.5z M128.92,87.23v13.27
	c-0.05,4.37-0.68,7.61-1.88,9.73c-1.2,2.12-3.15,3.18-5.86,3.18c-2.74,0-4.72-1.1-5.96-3.31c-1.24-2.21-1.86-5.6-1.86-10.14V86.39
	c0.08-4.27,0.73-7.4,1.97-9.41c1.24-2,3.17-3.01,5.77-3.01c2.69,0,4.66,1.05,5.92,3.16C128.29,79.24,128.92,82.61,128.92,87.23
	L128.92,87.23z"/>
</svg>
