<?xml version="1.0" standalone="no"?><!DOCTYPE svg PUBLIC "-//W3C//DTD SVG 1.1//EN" "http://www.w3.org/Graphics/SVG/1.1/DTD/svg11.dtd"><svg t="1509520532449" class="icon" style="fill:#888;" viewBox="0 0 1024 1024" version="1.1" xmlns="http://www.w3.org/2000/svg" p-id="5896" xmlns:xlink="http://www.w3.org/1999/xlink" width="200" height="200"><defs><style type="text/css"></style></defs><path d="M751.325009 149.019685c-32.923916-8.000952-65.794493-8.707702-98.545055 0.906775-40.711509 11.868078-70.675073 35.630905-86.076905 77.129174-19.0556 51.299435-19.042265 100.905336 6.307417 149.591126 7.280866 14.055005 14.228359 28.323369 20.509106 42.818427 13.801642 31.670434 12.001428 62.96749-3.720443 93.864498-10.281223 20.002379-23.389449 37.884506-38.164539 54.67317a148.897711 148.897711 0 0 0-24.80295 38.911295 144.91057 144.91057 0 0 0-12.454815 57.08679c-0.226694 25.949753 5.533992 50.285981 19.495652 72.101909 18.322179 28.630072 44.77866 44.978683 78.115958 49.245858 44.75199 5.77402 85.490169-4.480533 120.747696-34.510772a358.202607 358.202607 0 0 0 54.086433-58.433617c42.551728-56.780087 78.876049-117.413966 110.746507-180.728163 19.215619-38.151205 33.217284-78.369322 39.618045-120.89438 0.706751-8.961066 1.693535-17.882127 2.026908-26.803188 2.480295-69.168227-23.416119-124.668162-78.222637-165.873063-32.737227-24.616261-70.008327-39.431357-109.666378-49.085839z m154.685066 240.575282c-6.294082 49.445881-25.629715 92.344317-43.138465 127.148457-29.043455 57.633522-47.845691 90.584108-86.583632 142.270256-8.627693 11.534705-69.408256 113.000107-165.926403 96.998204-43.471837-7.214191-74.048808-71.26181-62.674121-110.679831 19.162279-66.061191 47.632332-80.636258 65.714483-111.506597 13.068221-22.30932 23.656147-62.794136 16.58864-99.851877-8.374329-43.83188-60.180492-106.132624-42.245025-169.846869 10.241218-36.417665 25.456361-73.64876 76.569107-83.716624 74.342176-14.668411 150.457896 21.842598 180.288112 44.258597 49.859264 37.511128 71.141795 88.103813 61.340629 164.952954zM528.698529 165.274952c34.470767 19.855695 74.675549 7.600904 92.010944-28.003331 8.000952-16.521965 10.161209-33.88403 7.720918-53.846405-4.000476-25.162993-15.80188-48.072385-38.671266-64.394326-34.217403-24.429572-77.089169-14.748421-96.771511 21.669244-22.522679 41.898317-5.72068 100.571963 35.710915 124.574818z m-11.107988-102.265497c10.881294-22.109296 36.204306-28.816761 57.126795-15.055124 13.988331 9.227764 21.562565 22.576019 24.496247 37.484458 1.920228 11.814739 1.040124 22.189306-3.373735 32.203831-9.481128 21.589235-33.17728 29.79021-54.153108 18.748896-25.243003-13.334919-36.604354-47.925701-24.109534-73.342057z m202.570761 60.407185c20.002379-13.588283 28.883436-33.337299 31.203712-53.766395 1.253482-17.442075-1.146803-31.47041-8.614358-44.391947-15.135134-26.336466-45.338726-32.977256-70.248356-15.655196-31.097032 21.615904-39.924749 71.26181-18.122156 101.91879 15.708535 22.095962 43.151799 27.203236 65.781158 11.881413z m-36.724368-88.63721c13.841646-9.614477 30.5503-5.934039 38.977969 8.681033 4.133825 7.147517 5.453982 14.948445 4.747232 24.629596-1.253482 11.294677-6.214072 22.28265-17.335395 29.803545-12.534824 8.494344-27.749967 5.680676-36.45767-6.600785-12.108107-17.002022-7.200857-44.511961 10.027859-56.513389z m142.896997 102.265498c17.908797-10.667936 26.669839-27.256575 29.696865-44.631976 2.040243-14.96178 0.706751-27.149896-5.053934-38.671266-11.62805-23.442788-37.21776-30.736989-59.567085-17.095367-27.869982 16.962018-38.1112 59.220377-20.989163 86.743651 12.321466 19.829025 35.64424 25.629715 55.913317 13.628288zM801.170938 61.395929c11.614715-7.067507 24.896295-3.293725 30.977018 8.894392 2.987022 5.960709 3.667103 12.321466 2.600309 20.082388-1.560186 9.014406-6.107393 17.668768-15.415167 23.189425-10.521251 6.240742-22.669363 3.213716-29.070124-7.067507-8.907726-14.308369-3.587093-36.257646 10.907964-45.098698z m62.380753 107.012729c9.05441 20.935824 30.763659 29.856885 52.112865 21.109178 18.908916-7.774258 29.73687-22.669363 35.230858-39.017975 4.12049-14.175019 4.600547-26.216452 0.720085-38.124534-7.840933-24.336228-31.510415-35.004164-55.153227-24.949635-29.403497 12.49482-45.45874 52.006186-32.897246 80.996301z m38.13787-55.286576c11.668055-4.96059 23.362779 0.306703 27.24324 12.321466 1.920228 5.907369 1.6802 11.841408-0.360043 18.842241-2.666984 8.107631-8.067626 15.441837-17.335395 19.255623-10.547921 4.333849-21.335871-0.08001-25.749729-10.401237-6.227407-14.335038 1.720205-33.844026 16.241931-40.004758z m66.16787 60.687218c-28.496723 8.334325-47.645667 42.99178-39.284673 71.115126 6.000714 20.242408 25.016309 30.790329 45.632095 25.016309 18.255505-5.120609 29.856885-17.655433 36.711033-32.150491 5.333968-12.654839 7.134182-23.656147 4.90725-35.070838-4.480533-23.22943-25.122988-35.604235-48.00571-28.910106z m21.735919 55.273242a26.149777 26.149777 0 0 1-16.761994 14.668411 16.348611 16.348611 0 0 1-20.829144-11.441361c-3.787117-12.788188 4.920585-28.616737 17.908797-32.430524 10.427907-3.053697 19.81569 2.600309 21.895937 13.214905 1.066794 5.213954 0.226694 10.227883-2.213596 16.001904z" p-id="5897"></path><path d="M264.613784 401.183012c-38.391233 13.841646-73.862119 32.563873-103.772344 60.553869-50.072623 46.832237-69.874978 104.799132-60.007137 173.353953 1.333492 8.827717 3.227051 17.588759 4.893915 26.429811 10.921299 41.631619 29.150134 80.089526 52.352894 116.013799 38.471243 59.473741 81.089645 115.82711 129.468733 167.833296a358.202607 358.202607 0 0 0 60.007138 52.299555c38.271219 26.083102 79.862833 31.923797 123.748052 21.335871 32.683888-7.827598 57.246809-26.909867 72.395278-57.340154 11.534705-23.189425 14.668411-48.00571 11.65472-73.782109a144.91057 144.91057 0 0 0-18.495534-55.51327 148.897711 148.897711 0 0 0-28.830096-36.004283c-16.48196-15.081794-31.44374-31.457075-43.80521-50.245976-19.00226-29.03012-24.082865-60.007138-13.748302-92.917719 4.693892-15.081794 10.067864-30.003569 15.80188-44.765325 20.002379-51.112746 14.668411-100.451948-9.761162-149.351098-19.775686-39.604711-52.086195-60.007138-93.851163-67.461357-33.590662-6.054053-66.207875-1.840219-98.078332 9.654482z m-128.015227 255.763755c-17.962137-75.35563-2.213597-127.935217 43.338488-170.580289 27.256575-25.483031 99.025112-69.968322 174.514091-63.314198 51.899507 4.547208 71.021781 39.924749 85.103456 75.035592 24.656266 61.420639-20.162398 128.908666-23.802831 173.353953-3.053697 37.604473 11.801404 76.715792 27.1899 97.504931 21.335871 28.763421 51.152751 40.191447 77.342533 103.825683 15.588521 37.964516-8.000952 104.919146-50.39266 116.74722-94.237876 26.269791-165.53969-68.101434-175.367526-78.676025-44.005234-47.24562-66.287885-77.995944-101.345388-132.175722-21.149182-32.723892-44.965348-73.342057-56.513389-121.787819z m351.108429-263.458003c38.671266-28.230024 49.059169-88.450521 22.135966-127.695189-23.469458-34.110724-67.127985-39.177993-98.531719-11.174663-20.975828 18.668887-30.270267 42.671742-31.537085 68.168109-0.280033 20.109059 3.693773 37.137751 13.454934 52.712936 20.989163 33.563992 62.340748 41.431595 94.477904 18.002142z m0.093345-102.865569c15.148469 24.002855 7.560899 59.593755-16.108583 75.528984-19.669006 13.22824-44.111914 7.614239-55.846643-12.841528-5.453982-9.481128-7.440885-19.709011-6.800809-31.657098 1.333492-15.135134 7.414215-29.216809 20.335752-39.884745 19.335633-15.921894 45.218712-12.001428 58.420283 8.854387z m-194.943188 81.769726c24.149539 12.801523 50.872718 4.787236 64.140963-18.868911 18.388854-32.803902 4.293844-81.222994-28.936776-99.385155-26.669839-14.561732-55.939987-4.733896-68.168108 23.082746-6.040719 13.641623-6.920823 27.856647-3.800452 45.058693 4.493868 20.002379 15.441837 38.751276 36.777708 50.112627z m27.016547-92.010944c18.415524 10.081199 26.243121 36.911057 16.001903 55.113222-7.334206 13.134896-22.175971 17.575424-35.53756 10.467912-11.828074-6.294082-17.935467-16.681984-20.389092-27.776638-1.746874-9.547802-1.266817-17.442075 2.080247-24.989639 6.814144-15.441837 23.042741-20.882484 37.817832-12.814857z m-131.108928 116.920574c21.44255 9.761161 44.005234 1.493511 54.126438-19.535657 14.06834-29.203474-0.640076-70.115007-30.163588-84.009993-23.682817-11.161328-48.352418-1.173473-57.340154 23.376114-4.493868 12.001428-4.507203 24.296223-0.880104 38.964634 4.90725 16.948683 15.361827 32.537203 34.310747 41.191567z m16.962017-77.9026c15.361827 7.227526 23.002736 28.483388 15.681865 43.671861-5.333968 10.921299-17.002022 15.215143-28.13668 10.147874-9.841171-4.493868-15.295153-12.601499-17.815452-21.402546-1.893559-7.614239-1.893559-14.001665 0.426717-20.242407 4.733896-12.761518 17.535419-17.948802 29.84355-12.161447z m-50.566014 113.080117c9.334444-30.203593-10.81462-67.728056-41.338251-76.995825-24.576257-7.45422-46.978921 5.680676-52.166205 30.670315-2.586974 12.268126-0.81343 24.176209 4.800571 37.831166 7.227526 15.72187 19.575662 29.336823 39.204664 35.017499 22.162636 6.414096 42.791757-4.787236 49.55256-26.576495z m-43.845216-50.872718c15.108464 4.587212 25.082984 23.12275 20.442432 38.044526-3.33373 10.747945-13.534943 16.281937-24.482912 13.108225-9.667817-2.800333-15.788545-9.507798-19.348968-17.335395-2.786998-6.747469-3.667103-12.628169-2.373616-18.668887 2.573639-12.36147 13.641623-18.842241 25.763064-15.175138z m-59.327056 67.434688c-23.429453-4.213835-42.671742 10.294558-44.591971 33.870696-1.000119 11.588045 1.920228 22.349325 8.627693 34.350752 8.374329 13.668292 21.255862 24.896295 40.004758 28.003331 21.122512 3.520419 38.89796-9.001071 42.671743-29.76354 5.333968-28.856766-17.45541-61.26062-46.672218-66.487909z m-15.6952 57.340154c-3.040362-5.467317-4.413858-10.361232-3.907132-15.668531 0.920109-10.78795 9.654482-17.40207 20.349087-15.495176 13.334919 2.400286 23.682817 17.202046 21.335871 30.323607a16.348611 16.348611 0 0 1-19.482317 13.601618 26.149777 26.149777 0 0 1-18.24217-12.774853z" p-id="5898"></path></svg>