<?xml version="1.0" standalone="no"?><!DOCTYPE svg PUBLIC "-//W3C//DTD SVG 1.1//EN" "http://www.w3.org/Graphics/SVG/1.1/DTD/svg11.dtd"><svg t="1509520493902" class="icon" style="fill:#888;" viewBox="0 0 1195 1024" version="1.1" xmlns="http://www.w3.org/2000/svg" p-id="5164" xmlns:xlink="http://www.w3.org/1999/xlink" width="200" height="200"><defs><style type="text/css"></style></defs><path d="M1119.630222 664.718222C1074.346667 600.860444 1013.191111 552.988444 942.193778 525.368889 973.596444 503.893333 999.879111 475.107556 1019.022222 441.543111 1041.152 402.688 1052.814222 358.428444 1052.814222 313.429333 1052.814222 172.942222 941.454222 58.709333 804.664889 58.709333 785.237333 58.709333 769.393778 74.183111 769.393778 93.184 769.393778 112.156444 785.237333 127.658667 804.664889 127.658667 902.570667 127.658667 982.243556 211.057778 982.243556 313.429333 982.243556 415.971556 902.570667 499.370667 804.664889 499.370667 785.237333 499.370667 769.393778 514.844444 769.393778 533.845333L769.393778 533.987556C769.393778 552.988444 785.237333 568.462222 804.664889 568.462222 980.764444 568.462222 1124.124444 717.710222 1124.124444 901.176889 1124.124444 920.149333 1139.968 935.623111 1159.395556 935.623111 1178.823111 935.623111 1194.666667 920.149333 1194.666667 901.176889 1194.524444 815.445333 1168.668444 733.781333 1119.630222 664.718222L1119.630222 664.718222 1119.630222 664.718222ZM755.342222 606.151111C718.421333 580.579556 678.058667 560.270222 635.591111 545.962667 725.447111 492.657778 780.600889 397.568 780.600889 294.314667 780.600889 132.039111 645.461333 0 479.402667 0 313.173333 0 178.033778 132.039111 178.033778 294.456889 178.033778 349.667556 193.877333 403.541333 223.772444 450.275556 249.173333 489.870222 283.562667 522.865778 324.238222 546.702222 280.888889 561.152 240.071111 581.603556 202.552889 607.601778 161.592889 635.932444 125.724444 670.122667 95.516444 709.233778 33.024 790.755556 0 887.580444 0 989.525333 0 1008.526222 15.843556 1024 35.271111 1024 54.698667 1024 70.542222 1008.526222 70.542222 989.525333 70.542222 883.342222 113.009778 783.160889 190.008889 707.640889 266.837333 632.291556 368.469333 590.791111 476.245333 590.648889 479.829333 590.933333 483.413333 590.648889 487.025778 589.909333L489.870222 589.340444C594.801778 591.388444 693.304889 632.718222 768.341333 706.332444 845.312 781.824 887.637333 881.891556 887.637333 988.216889 887.637333 1007.217778 903.480889 1022.691556 922.908444 1022.691556 942.336 1022.691556 958.179556 1007.217778 958.179556 988.216889 958.179556 886.272 925.155556 789.447111 862.520889 707.925333 832.312889 668.643556 796.302222 634.453333 755.342222 606.151111L755.342222 606.151111 755.342222 606.151111ZM479.402667 68.949333C606.606222 68.949333 710.200889 170.154667 710.200889 294.456889 710.200889 418.759111 606.606222 519.964444 479.402667 519.964444 352.170667 519.964444 248.604444 418.759111 248.604444 294.456889 248.604444 170.012444 352.170667 68.949333 479.402667 68.949333L479.402667 68.949333 479.402667 68.949333Z" p-id="5165"></path></svg>