<?xml version="1.0" standalone="no"?><!DOCTYPE svg PUBLIC "-//W3C//DTD SVG 1.1//EN" "http://www.w3.org/Graphics/SVG/1.1/DTD/svg11.dtd"><svg t="1509520087009" class="icon" style="fill:#888;" viewBox="0 0 1024 1024" version="1.1" xmlns="http://www.w3.org/2000/svg" p-id="2711" xmlns:xlink="http://www.w3.org/1999/xlink" width="200" height="200"><defs><style type="text/css"></style></defs><path d="M990.72 494.08l-460.8-460.8c-10.24-10.24-25.6-10.24-35.84 0l-460.8 460.8c-7.68 10.24-7.68 25.6 0 33.28 10.24 10.24 25.6 10.24 35.84 2.56L128 471.04 128 947.2c0 15.36 10.24 25.6 25.6 25.6l256 0c15.36 0 25.6-10.24 25.6-25.6L435.2 614.4l153.6 0 0 332.8c0 15.36 10.24 25.6 25.6 25.6l256 0c15.36 0 25.6-10.24 25.6-25.6L896 471.04l58.88 58.88c10.24 10.24 25.6 10.24 35.84 0C1000.96 519.68 1000.96 504.32 990.72 494.08zM844.8 921.6l-204.8 0L640 588.8c0-15.36-10.24-25.6-25.6-25.6l-204.8 0c-15.36 0-25.6 10.24-25.6 25.6l0 332.8L179.2 921.6 179.2 419.84l332.8-332.8 332.8 332.8L844.8 921.6z" p-id="2712"></path></svg>