<?xml version="1.0" standalone="no"?><!DOCTYPE svg PUBLIC "-//W3C//DTD SVG 1.1//EN" "http://www.w3.org/Graphics/SVG/1.1/DTD/svg11.dtd"><svg t="1531103796968" class="icon" style="" viewBox="0 0 1024 1024" version="1.1" xmlns="http://www.w3.org/2000/svg" p-id="4718" xmlns:xlink="http://www.w3.org/1999/xlink" width="200" height="200"><defs><style type="text/css"></style></defs><path d="M378.774225 490.089523c36.769306 32.739793 84.116085 50.872602 133.477619 50.872602 17.12543 0 30.725037-13.095917 30.725037-29.717659s-13.599606-30.221348-30.221348-30.221348c-34.75455 0-67.494343-12.592228-93.182489-35.761928-12.592228-11.58485-31.732415-10.577472-42.813576 2.014757C365.174619 459.868175 366.181997 479.008362 378.774225 490.089523z" p-id="4719"></path><path d="M512.251845 199.964584c65.983276 0 123.907526 46.843089 137.507132 111.818987 3.022135 14.606985 15.614363 24.177078 29.717659 24.177078 2.014757 0 4.533202-0.503689 6.04427-0.503689 16.621741-3.525824 27.199213-19.643876 23.673389-35.761928-19.643876-92.6788-102.248893-160.173143-196.94245-160.173143-16.621741 0-30.221348 13.599606-30.221348 30.221348S495.630103 199.964584 512.251845 199.964584z" p-id="4720"></path><path d="M763.089031 497.64486c28.71028-45.332022 45.332022-99.226758 45.332022-157.151008 0-163.195278-132.97393-295.665519-295.665519-295.665519-163.195278 0-295.665519 132.470241-295.665519 295.665519 0 57.420561 16.621741 110.811608 44.828333 156.14363l-155.639941 370.21151 193.920315-74.545991 74.042302 224.141663 138.010821-329.91638 138.514511 329.91638 74.042302-223.637973 193.920315 74.545991L763.089031 497.64486zM512.755534 105.271028c129.448106 0 235.222823 105.271028 235.222823 235.222823 0 129.951795-105.271028 235.222823-235.222823 235.222823s-234.719134-105.774717-234.719134-235.726513C278.036399 210.038367 382.803738 105.271028 512.755534 105.271028zM380.788982 843.679292l-42.813576-130.455485-121.38908 46.3394 85.627152-203.490408c46.843089 44.324643 104.26365 72.531235 164.706345 82.101328L380.788982 843.679292zM687.031972 713.223807l-42.813576 130.455485-86.130841-205.001476c60.442696-9.570093 117.863256-37.776685 165.210034-82.101328l85.123463 202.986719L687.031972 713.223807z" p-id="4721"></path></svg>