<?xml version="1.0" encoding="utf-8"?>
<!-- Generator: Adobe Illustrator 17.0.0, SVG Export Plug-In . SVG Version: 6.00 Build 0)  -->
<!DOCTYPE svg PUBLIC "-//W3C//DTD SVG 1.1//EN" "http://www.w3.org/Graphics/SVG/1.1/DTD/svg11.dtd">
<svg version="1.1" id="图层_1" xmlns="http://www.w3.org/2000/svg" xmlns:xlink="http://www.w3.org/1999/xlink" x="0px" y="0px"
	 width="200px" height="200px" viewBox="0 0 200 200" enable-background="new 0 0 200 200" xml:space="preserve">
<path fill="#3D89F7" d="M179.85,25.949H20.15c-10.147,0-18.362,8.577-18.362,19.087v110.05c0,10.51,8.215,19.087,18.362,19.087
	h159.7c10.147,0,18.362-8.577,18.362-19.087V44.914C198.212,34.405,189.997,25.949,179.85,25.949z M132.375,128.026h-6.04
	l-8.819-23.194h5.678l5.436,16.308c0.242,0.604,0.483,1.208,0.725,1.933c0.121,0.242,0.121,0.362,0.121,0.362
	c0.121-0.121,0.121-0.362,0.242-0.846c0.242-0.725,0.362-1.208,0.483-1.57l5.194-16.187h5.678L132.375,128.026L132.375,128.026z
	 M152.428,128.026h-5.315v-23.194h5.315V128.026z M170.307,119.932h-3.866v8.094h-5.436v-23.194h9.664
	c5.678,0.121,8.698,2.658,8.819,7.369C179.608,117.395,176.467,119.932,170.307,119.932L170.307,119.932z M189.152,59.531H10.848
	V44.914c0-5.557,4.228-10.027,9.302-10.027h159.7c5.074,0,9.302,4.47,9.302,10.027V59.531z"/>
<path fill="#3D89F7" d="M12.298,68.592h175.646v11.235H12.298V68.592z M10.848,88.765v66.199c0,5.557,4.228,10.027,9.302,10.027
	h159.7c5.074,0,9.302-4.47,9.302-10.027V88.765H10.848z M132.375,128.026h-6.04l-8.819-23.194h5.678l5.436,16.308
	c0.242,0.604,0.483,1.208,0.725,1.933c0.121,0.242,0.121,0.362,0.121,0.362c0.121-0.121,0.121-0.362,0.242-0.846
	c0.242-0.725,0.362-1.208,0.483-1.57l5.194-16.187h5.678L132.375,128.026L132.375,128.026z M152.428,128.026h-5.315v-23.194h5.315
	V128.026z M170.307,119.932h-3.866v8.094h-5.436v-23.194h9.664c5.678,0.121,8.698,2.658,8.819,7.369
	C179.608,117.395,176.467,119.932,170.307,119.932L170.307,119.932z"/>
<path fill="#3D89F7" d="M169.823,108.939h-3.382v7.007h3.382c2.778-0.121,4.107-1.208,4.228-3.503
	C174.051,110.147,172.602,108.939,169.823,108.939L169.823,108.939z"/>
</svg>
