<?xml version="1.0" standalone="no"?><!DOCTYPE svg PUBLIC "-//W3C//DTD SVG 1.1//EN" "http://www.w3.org/Graphics/SVG/1.1/DTD/svg11.dtd"><svg t="1530857975134" class="icon" style="" viewBox="0 0 1280 1024" version="1.1" xmlns="http://www.w3.org/2000/svg" p-id="10570" xmlns:xlink="http://www.w3.org/1999/xlink" width="250" height="200"><defs><style type="text/css"></style></defs><path d="M1083.733333 154.548148h-871.348148c-29.392593 0-54.044444 26.548148-54.044444 58.785185v78.696297H1137.777778V213.333333c0-32.237037-24.651852-58.785185-54.044445-58.785185z m-889.362963 257.896296h-36.029629v397.274075c0 32.237037 24.651852 58.785185 54.044444 58.785185h871.348148c29.392593 0 54.044444-26.548148 54.044445-58.785185V412.444444h-943.407408z m73.007408 179.2h217.125926v39.822223h-217.125926v-39.822223z m363.140741 159.288889h-363.140741v-39.822222h363.140741v39.822222z m399.17037-39.822222c0 21.807407-16.118519 39.822222-36.02963 39.822222H919.703704c-19.911111 0-36.02963-18.014815-36.02963-39.822222v-1.896296c0-21.807407 16.118519-39.822222 36.02963-39.822222h73.955555c19.911111 0 36.02963 18.014815 36.02963 39.822222v1.896296z" fill="#5CC6F8" p-id="10571"></path></svg>