<?xml version="1.0" encoding="utf-8"?>
<!-- Generator: Adobe Illustrator 17.0.0, SVG Export Plug-In . SVG Version: 6.00 Build 0)  -->
<!DOCTYPE svg PUBLIC "-//W3C//DTD SVG 1.1//EN" "http://www.w3.org/Graphics/SVG/1.1/DTD/svg11.dtd">
<svg version="1.1" id="图层_1" xmlns="http://www.w3.org/2000/svg" xmlns:xlink="http://www.w3.org/1999/xlink" x="0px" y="0px"
	 width="200px" height="200px" viewBox="0 0 200 200" enable-background="new 0 0 200 200" xml:space="preserve">
<path fill="#3D89F7" d="M99.98,0C44.835,0,0,44.835,0,100c0,55.126,44.835,100,99.98,100c55.106,0,99.98-44.874,99.98-100
	C199.961,44.835,155.087,0,99.98,0 M99.98,191.994c-50.752,0-92.013-41.281-92.013-91.994c0-50.752,41.261-92.033,92.013-92.033
	c50.713,0,91.974,41.281,91.974,92.033C191.955,150.713,150.693,191.994,99.98,191.994 M100.391,19.547
	c-44.523,0-80.648,36.106-80.648,80.629s36.126,80.629,80.648,80.629S181,144.698,181,100.176S144.913,19.547,100.391,19.547
	 M131.068,99.922v11.404h-24.136v6.581h24.136v10.838h-24.136v19.977H94.064v-19.977H69.83v-10.838h24.273v-6.581H69.83V99.922
	h19.195l-23.804-43.82h14.294l17.321,32.396c1.426,2.695,2.558,5.038,3.456,7.128c0.976-2.031,2.207-4.608,3.769-7.694
	l16.364-31.869h15.114l-23.667,43.859H131.068z"/>
</svg>
