<?xml version="1.0" encoding="utf-8"?>
<!-- Generator: Adobe Illustrator 17.0.0, SVG Export Plug-In . SVG Version: 6.00 Build 0)  -->
<!DOCTYPE svg PUBLIC "-//W3C//DTD SVG 1.1//EN" "http://www.w3.org/Graphics/SVG/1.1/DTD/svg11.dtd">
<svg version="1.1" id="图层_1" xmlns="http://www.w3.org/2000/svg" xmlns:xlink="http://www.w3.org/1999/xlink" x="0px" y="0px"
	 width="200px" height="200px" viewBox="0 0 200 200" enable-background="new 0 0 200 200" xml:space="preserve">
<path fill="#FFBA1F" d="M160.836,12.119H39.144c-14.71,0-26.636,11.926-26.636,26.636l0,121.691
	c0,14.711,11.926,26.636,26.636,26.636h121.691c14.711,0,26.636-11.925,26.636-26.636V38.755
	C187.472,24.044,175.547,12.119,160.836,12.119z M66.526,49.394h16.728V41.03c0-4.605,3.776-8.368,8.373-8.368h16.727
	c4.605,0,8.373,3.762,8.373,8.368v8.364h16.737V66.13H66.526L66.526,49.394L66.526,49.394z M120.433,108.183l-0.017,7.574h-11.481
	l-1.085,2.315v3.66h12.584v7.574l-12.584,0v11H95.744v-11H83.237v-7.574h12.507l0-3.66l-1.11-2.315H83.237v-7.574h7.664
	L78.615,85.43h12.909l8.697,18.85l3.579-0.021l8.5-18.829h12.918l-12.354,22.754H120.433z M150.198,166.537h-96.23
	c-2.299,0-4.186-1.892-4.186-4.178V53.58c0-2.303,1.888-4.185,4.186-4.185h8.372v8.363h-4.185v100.416h83.671V57.757h-4.178v-8.363
	h8.364c2.306,0,4.186,1.884,4.186,4.186L150.198,166.537L150.198,166.537z"/>
</svg>
