<?xml version="1.0" encoding="utf-8"?>
<!-- Generator: Adobe Illustrator 17.0.0, SVG Export Plug-In . SVG Version: 6.00 Build 0)  -->
<!DOCTYPE svg PUBLIC "-//W3C//DTD SVG 1.1//EN" "http://www.w3.org/Graphics/SVG/1.1/DTD/svg11.dtd">
<svg version="1.1" id="图层_1" xmlns="http://www.w3.org/2000/svg" xmlns:xlink="http://www.w3.org/1999/xlink" x="0px" y="0px"
	 width="200px" height="200px" viewBox="0 0 200 200" enable-background="new 0 0 200 200" xml:space="preserve">
<path fill="#3D89F7" d="M14.7,72.1c4.2,0,7.6-3.4,7.6-7.6V28.8c0-3.6,3-6.595,6.6-6.595h35.5c4.199,0,7.603-3.404,7.603-7.603
	S68.599,7,64.4,7H28.9C16.874,7.027,7.13,16.769,7.1,28.795V64.3C7.1,68.7,10.5,72.1,14.7,72.1z M128.4,22.2h42.605
	c3.6,0,6.595,3,6.595,6.595V64.3c0,4.199,3.404,7.603,7.602,7.603c4.199,0,7.603-3.404,7.603-7.603V28.8
	c-0.03-12.024-9.771-21.765-21.795-21.795h-42.605c-4.196-0.109-7.686,3.204-7.795,7.4s3.204,7.686,7.4,7.795
	C128.14,22.203,128.27,22.203,128.4,22.2L128.4,22.2z M185.3,127.9c-4.2,0-7.6,3.4-7.6,7.6v35.505c0,3.6-3,6.595-6.6,6.595h-42.6
	c-4.199,0.108-7.515,3.599-7.408,7.797c0.104,4.047,3.36,7.304,7.408,7.408h42.6c12,0,21.8-9.8,21.8-21.795V135.5
	C192.9,131.3,189.5,127.9,185.3,127.9z M64.5,177.8H28.9c-3.6,0-6.6-3-6.6-6.595V135.7c0.001-4.197-3.402-7.6-7.599-7.601
	s-7.6,3.402-7.601,7.599c0,0.001,0,0.001,0,0.002v35.505c0.03,12.026,9.774,21.768,21.8,21.795h35.5c4.2,0,7.6-3.4,7.6-7.6
	S68.7,177.8,64.5,177.8z M192.4,92.4H7.6c-4.197-0.003-7.603,3.397-7.606,7.594c-0.003,4.197,3.397,7.603,7.594,7.606
	c0.004,0,0.008,0,0.012,0h184.8c4.197,0,7.6-3.403,7.6-7.6C200,95.803,196.597,92.4,192.4,92.4z"/>
</svg>
