<?xml version="1.0" encoding="utf-8"?>
<!-- Generator: Adobe Illustrator 17.0.0, SVG Export Plug-In . SVG Version: 6.00 Build 0)  -->
<!DOCTYPE svg PUBLIC "-//W3C//DTD SVG 1.1//EN" "http://www.w3.org/Graphics/SVG/1.1/DTD/svg11.dtd">
<svg version="1.1" id="图层_1" xmlns="http://www.w3.org/2000/svg" xmlns:xlink="http://www.w3.org/1999/xlink" x="0px" y="0px"
	 width="200px" height="200px" viewBox="0 0 200 200" enable-background="new 0 0 200 200" xml:space="preserve">
<path fill="#FFFFFF" d="M48.133,197.496c-3.225-3.267-3.208-8.521,0.051-11.755l85.961-85.178L48.549,14.198
	c-3.234-3.267-3.21-8.522,0.049-11.764c3.268-3.235,8.531-3.21,11.766,0.049l90.967,91.795c0.141,0.142,0.174,0.325,0.307,0.466
	c0.033,0.034,0.074,0.042,0.108,0.075c1.604,1.621,2.412,3.743,2.412,5.854c0,2.136-0.823,4.282-2.461,5.903l-91.799,90.964
	C56.63,200.781,51.368,200.755,48.133,197.496L48.133,197.496L48.133,197.496z"/>
</svg>
